<svg xmlns="http://www.w3.org/2000/svg" width="40" height="46" viewBox="0 0 40 46">
  <defs>
    <style>
      .cls-1 {
        fill: none;
      }

      .cls-2 {
        fill: #fff;
        fill-rule: evenodd;
      }
    </style>
  </defs>
  <g id="Component" transform="translate(0 0.091)">
    <rect id="Rectangle_393" data-name="Rectangle 393" class="cls-1" width="39.257" height="46" transform="translate(0.743 -0.091)"/>
    <path id="Path_2" data-name="Path 2" class="cls-2" d="M50.595,34.26c15.025,0,23.2-12.374,23.2-23.2v-1.1a17.961,17.961,0,0,0,3.977-4.2,18.343,18.343,0,0,1-4.64,1.326,8.6,8.6,0,0,0,3.535-4.419,20.267,20.267,0,0,1-5.082,1.989A7.891,7.891,0,0,0,65.62,2a8.3,8.3,0,0,0-8.176,8.176,4.308,4.308,0,0,0,.221,1.768A22.845,22.845,0,0,1,40.872,3.326a8.462,8.462,0,0,0-1.1,4.2,8.779,8.779,0,0,0,3.535,6.85,7.449,7.449,0,0,1-3.756-1.1h0a8.075,8.075,0,0,0,6.629,7.955,6.812,6.812,0,0,1-2.21.221,3.76,3.76,0,0,1-1.547-.221,8.371,8.371,0,0,0,7.734,5.745A16.683,16.683,0,0,1,39.989,30.5,6.117,6.117,0,0,1,38,30.283,20.856,20.856,0,0,0,50.595,34.26" transform="translate(-38 4.213)"/>
  </g>
</svg>
